<svg width="24" height="24" viewBox="0 0 24 24" fill="none" xmlns="http://www.w3.org/2000/svg">
<g clip-path="url(#clip0_15635_4961)">
<path d="M8.44052 1.44171C9.2456 1.42106 10.1127 1.43564 10.9219 1.43564L15.3825 1.43558L17.681 1.4356C18.1622 1.43531 18.7405 1.40625 19.203 1.47964C19.8429 1.58119 20.3963 1.89638 20.755 2.43654C21.0772 2.92151 21.2258 3.17426 21.246 3.77337C21.2573 4.10763 21.2575 4.4261 21.2575 4.75514L21.2567 6.43711L21.2562 11.6493L21.2573 15.2906C21.2577 15.9419 21.2826 16.6732 21.2124 17.3168C21.1709 17.6976 20.8523 18.2313 20.6032 18.5141C20.121 19.0612 19.452 19.2483 18.7526 19.2976C17.992 19.3166 17.1828 19.3032 16.418 19.3043L11.7294 19.3054L9.51471 19.307C9.12094 19.3072 8.44657 19.3247 8.0791 19.2625C7.58051 19.1793 7.11462 18.9598 6.73301 18.6283C6.4542 18.3815 6.16568 17.8422 6.08236 17.4802C5.97143 16.998 5.99946 16.4106 6.00052 15.9143L6.0016 14.2517L6.00117 8.91867L5.99965 5.42545C5.99923 4.8364 5.95953 4.14363 6.03103 3.56508C6.19582 2.23155 7.17396 1.51375 8.44052 1.44171ZM18.9236 18.5083C19.1887 18.4823 19.2828 18.4675 19.5143 18.3295C20.4928 17.746 20.4387 17.153 20.439 16.1407L20.4391 14.7171L20.4383 10.1328L20.439 5.92073C20.4393 5.50305 20.4457 5.09215 20.4395 4.66371C20.4278 3.86292 20.5447 3.19732 19.8521 2.6408C19.2467 2.15433 18.7707 2.26636 18.0391 2.25041C17.8709 2.24675 17.6934 2.25064 17.5221 2.25077L14.706 2.25286L10.4859 2.25203C9.85381 2.25176 8.91633 2.22327 8.30599 2.25851C6.77801 2.4994 6.79789 3.585 6.79887 4.85046L6.80112 6.46648L6.80234 11.5349L6.80215 15.2299C6.80208 15.5284 6.83056 16.0016 6.80025 16.2932C6.6949 17.3074 7.16042 18.4083 8.29303 18.5088C8.862 18.5593 9.60349 18.5192 10.2097 18.519L14.0778 18.5195L17.4099 18.5183C17.7631 18.5179 18.612 18.5629 18.9236 18.5083Z" fill="black" stroke="black" stroke-width="0.1"/>
<path d="M17.3308 4.43432C17.3887 4.42994 17.4488 4.42514 17.506 4.438C17.6064 4.4606 17.7097 4.51582 17.7635 4.60638C17.9798 4.97107 17.1179 6.58935 17.0002 7.07444C17.0997 7.36858 17.2523 7.64721 17.3634 7.93863C17.4939 8.28096 17.7418 8.81282 17.7899 9.16394C17.8512 9.61157 17.1755 10.9614 17.0029 11.4629C17.0882 11.8051 17.2476 12.0755 17.35 12.3336C17.4159 12.4995 17.8183 13.5521 17.8057 13.6445C17.717 14.2935 17.2423 15.2694 16.998 15.9078C16.8956 16.1755 16.8692 16.2134 16.6446 16.3064C16.4173 16.2974 16.064 16.1245 16.1745 15.8449C16.4544 15.1364 16.7094 14.4222 16.9692 13.7061C16.8186 13.0296 16.3583 12.1987 16.1672 11.5261C16.1353 11.4141 16.4065 10.8182 16.4622 10.6681C16.6419 10.1932 16.8112 9.71439 16.9699 9.23207C16.7732 8.73349 16.5963 8.21981 16.4119 7.7159C16.3304 7.49315 16.2049 7.28367 16.1416 7.07723C16.1745 6.86981 16.2472 6.7496 16.33 6.55755C16.5937 5.9459 16.7767 5.30017 17.0312 4.68475C17.0985 4.52193 17.1727 4.49348 17.3308 4.43432Z" fill="black"/>
<path d="M10.5477 4.43277C11.3103 4.37832 11.0157 5.0588 10.8666 5.46995C10.6718 6.00692 10.3912 6.52346 10.2499 7.07253C10.5323 7.84182 10.8426 8.46737 11.0762 9.26005C10.9455 9.83656 10.4775 10.8218 10.2541 11.4661C10.3906 11.9872 11.0229 13.2392 11.0602 13.733C11.0778 13.9658 10.5541 15.0739 10.4517 15.3486C10.3365 15.6573 10.2485 16.1726 9.90785 16.2956C9.50306 16.2906 9.30138 16.0915 9.45349 15.708C9.7181 15.0406 9.99033 14.3874 10.2106 13.7014C10.1048 13.2293 9.80484 12.5912 9.63349 12.1302C9.55437 11.9174 9.34971 11.6161 9.41946 11.3856C9.52798 11.027 9.70191 10.6777 9.83379 10.3286C9.96959 9.9699 10.096 9.60769 10.2129 9.2424C9.98526 8.66438 9.81291 8.04798 9.54087 7.4851C9.42893 7.23151 9.34554 7.05601 9.46699 6.7842C9.7545 6.14082 9.98135 5.48429 10.2192 4.82141C10.2953 4.60948 10.3375 4.5226 10.5477 4.43277Z" fill="black"/>
<path d="M13.9256 4.43102C14.1408 4.41452 14.4836 4.55221 14.4484 4.8101C14.415 5.03737 14.2796 5.26209 14.2152 5.47584C14.061 5.9879 13.7664 6.56029 13.6488 7.07376C13.8704 7.6526 14.0697 8.2386 14.2965 8.81535C14.3535 8.96022 14.4127 9.10096 14.4617 9.24906C14.4411 9.35566 14.2783 9.73457 14.2331 9.86437C14.051 10.3879 13.8117 10.948 13.6537 11.4754C13.7782 11.9469 14.0112 12.4371 14.1609 12.9071C14.2341 13.1371 14.3669 13.3665 14.4306 13.5995L14.4349 13.6154C14.4505 13.6724 14.4489 13.737 14.4269 13.7928C14.1426 14.5111 13.8997 15.2451 13.6221 15.9657C13.5414 16.1752 13.5092 16.2005 13.3044 16.2832C13.0034 16.3272 12.887 16.2125 12.7822 15.9462C12.9003 15.4713 13.1449 14.8929 13.3163 14.4279C13.4071 14.1814 13.5288 13.9874 13.6154 13.7099C13.5477 13.4047 13.3919 13.1794 13.2948 12.9113C13.1334 12.4656 12.897 11.9238 12.7905 11.4716C12.9053 11.0333 13.1269 10.5031 13.2871 10.0714C13.3775 9.82797 13.5649 9.47772 13.6139 9.23479C13.3366 8.49888 13.0306 7.83796 12.7891 7.07458C12.8066 6.9835 12.8295 6.89353 12.8577 6.80514C13.0399 6.24888 13.2572 5.6837 13.4883 5.14673C13.5998 4.88765 13.6639 4.564 13.9256 4.43102Z" fill="black"/>
<path d="M3.32715 0.516847C3.84972 0.477005 4.46392 1.42251 4.85218 1.74352C5.07243 1.92559 5.0297 2.06528 4.94851 2.30423C4.39872 2.70299 4.23793 2.18184 3.83664 1.85729L3.83657 20.3007C3.99953 20.3301 4.10851 20.3714 4.25214 20.4517C4.64092 20.674 4.92807 21.0388 5.05293 21.4689L20.812 21.468C20.6801 21.36 20.3215 20.983 20.2635 20.8049C20.1976 20.5763 20.3784 20.3034 20.6305 20.3362C20.9177 20.3736 21.2732 20.7207 21.4509 20.935C21.6606 21.1878 22.1354 21.5578 22.2152 21.8514C22.1676 22.2215 21.3729 22.74 21.1547 23.0827C21.0572 23.2358 20.7854 23.3968 20.5968 23.4247C19.8179 23.179 20.5017 22.5568 20.8002 22.2606C20.4438 22.2971 19.4312 22.2699 19.0392 22.2699L15.3894 22.2702L8.64566 22.2694C7.47297 22.2693 6.24282 22.2884 5.07564 22.2661C5.06668 22.2866 5.05733 22.307 5.04758 22.3272C4.59667 23.2666 3.7854 23.7772 2.73793 23.3394C2.42643 23.2093 1.96096 22.6671 1.86701 22.3368C1.59455 21.379 2.1361 20.5684 3.05045 20.2727C3.08973 19.7941 3.05851 18.759 3.05659 18.2383L3.05382 14.5045L3.05333 1.83269C2.88775 2.00184 2.72858 2.2267 2.53621 2.36226C2.43639 2.43262 2.31666 2.4779 2.19362 2.45315C2.08523 2.43133 1.99874 2.34632 1.94024 2.2566C1.88523 2.17225 1.86242 2.06395 1.88825 1.96497C1.92777 1.81355 2.71853 1.01196 2.87122 0.873043C3.01302 0.741812 3.16553 0.622662 3.32715 0.516847ZM3.50401 22.6839C3.95504 22.6527 4.29875 22.2673 4.27827 21.8156C4.25781 21.364 3.88065 21.0112 3.42864 21.021C3.12655 21.0275 2.8517 21.1972 2.71051 21.4643C2.56932 21.7315 2.58395 22.0541 2.74872 22.3074C2.9135 22.5606 3.20258 22.7048 3.50401 22.6839Z" fill="black" stroke="black" stroke-width="0.1"/>
</g>
<defs>
<clipPath id="clip0_15635_4961">
<rect width="24" height="24" fill="white"/>
</clipPath>
</defs>
</svg>
